<?xml version="1.0" encoding="UTF-8" standalone="no"?>
<!-- Generator: Adobe Illustrator 19.0.0, SVG Export Plug-In . SVG Version: 6.00 Build 0)  -->

<svg
   xmlns:dc="http://purl.org/dc/elements/1.1/"
   xmlns:cc="http://creativecommons.org/ns#"
   xmlns:rdf="http://www.w3.org/1999/02/22-rdf-syntax-ns#"
   xmlns:svg="http://www.w3.org/2000/svg"
   xmlns="http://www.w3.org/2000/svg"
   xmlns:sodipodi="http://sodipodi.sourceforge.net/DTD/sodipodi-0.dtd"
   xmlns:inkscape="http://www.inkscape.org/namespaces/inkscape"
   version="1.1"
   id="Layer_1"
   x="0px"
   y="0px"
   viewBox="0 0 495 495"
   style="enable-background:new 0 0 495 495;"
   xml:space="preserve"
   sodipodi:docname="add-weight.svg"
   inkscape:version="0.92.3 (2405546, 2018-03-11)"><metadata
   id="metadata3867"><rdf:RDF><cc:Work
       rdf:about=""><dc:format>image/svg+xml</dc:format><dc:type
         rdf:resource="http://purl.org/dc/dcmitype/StillImage" /></cc:Work></rdf:RDF></metadata><defs
   id="defs3865" /><sodipodi:namedview
   pagecolor="#ffffff"
   bordercolor="#666666"
   borderopacity="1"
   objecttolerance="10"
   gridtolerance="10"
   guidetolerance="10"
   inkscape:pageopacity="0"
   inkscape:pageshadow="2"
   inkscape:window-width="640"
   inkscape:window-height="480"
   id="namedview3863"
   showgrid="false"
   inkscape:zoom="0.47676768"
   inkscape:cx="247.5"
   inkscape:cy="247.5"
   inkscape:window-x="220"
   inkscape:window-y="41"
   inkscape:window-maximized="0"
   inkscape:current-layer="Layer_1" />
<g
   id="g3830"
   transform="rotate(180,247.5,247.5)">
	<polygon
   style="fill:#bddbff"
   points="115.865,267.5 115.865,227.5 227.5,227.5 227.5,115.867 247.5,115.867 247.5,0 0,0 0,495 247.5,495 247.5,379.133 227.5,379.133 227.5,267.5 "
   id="polygon3824" />
	<polygon
   style="fill:#9bc9ff"
   points="267.5,115.867 267.5,227.5 379.135,227.5 379.135,267.5 267.5,267.5 267.5,379.133 247.5,379.133 247.5,495 495,495 495,0 247.5,0 247.5,115.867 "
   id="polygon3826" />
	<polygon
   style="fill:#2488ff"
   points="115.865,267.5 227.5,267.5 227.5,379.133 267.5,379.133 267.5,267.5 379.135,267.5 379.135,227.5 267.5,227.5 267.5,115.867 227.5,115.867 227.5,227.5 115.865,227.5 "
   id="polygon3828" />
</g>
<g
   id="g3832">
</g>
<g
   id="g3834">
</g>
<g
   id="g3836">
</g>
<g
   id="g3838">
</g>
<g
   id="g3840">
</g>
<g
   id="g3842">
</g>
<g
   id="g3844">
</g>
<g
   id="g3846">
</g>
<g
   id="g3848">
</g>
<g
   id="g3850">
</g>
<g
   id="g3852">
</g>
<g
   id="g3854">
</g>
<g
   id="g3856">
</g>
<g
   id="g3858">
</g>
<g
   id="g3860">
</g>
</svg>