<?xml version="1.0" encoding="iso-8859-1"?>
<!-- Generator: Adobe Illustrator 19.0.0, SVG Export Plug-In . SVG Version: 6.00 Build 0)  -->
<svg version="1.1" id="Layer_1" xmlns="http://www.w3.org/2000/svg" xmlns:xlink="http://www.w3.org/1999/xlink" x="0px" y="0px"
	 viewBox="0 0 495 495" style="enable-background:new 0 0 495 495;" xml:space="preserve">
<g>
	<polygon style="fill:#BDDBFF;" points="227.5,379.133 227.5,267.5 115.865,267.5 115.865,227.5 227.5,227.5 227.5,115.867 
		247.5,115.867 247.5,0 0,0 0,495 247.5,495 247.5,379.133 	"/>
	<polygon style="fill:#9BC9FF;" points="247.5,0 247.5,115.867 267.5,115.867 267.5,227.5 379.135,227.5 379.135,267.5 267.5,267.5 
		267.5,379.133 247.5,379.133 247.5,495 495,495 495,0 	"/>
	<polygon style="fill:#2488FF;" points="227.5,227.5 115.865,227.5 115.865,267.5 227.5,267.5 227.5,379.133 267.5,379.133 
		267.5,267.5 379.135,267.5 379.135,227.5 267.5,227.5 267.5,115.867 227.5,115.867 	"/>
</g>
<g>
</g>
<g>
</g>
<g>
</g>
<g>
</g>
<g>
</g>
<g>
</g>
<g>
</g>
<g>
</g>
<g>
</g>
<g>
</g>
<g>
</g>
<g>
</g>
<g>
</g>
<g>
</g>
<g>
</g>
</svg>
