<?xml version="1.0" encoding="iso-8859-1"?>
<!-- Generator: Adobe Illustrator 19.0.0, SVG Export Plug-In . SVG Version: 6.00 Build 0)  -->
<svg version="1.1" id="Capa_1" xmlns="http://www.w3.org/2000/svg" xmlns:xlink="http://www.w3.org/1999/xlink" x="0px" y="0px"
	 viewBox="0 0 512 512" style="enable-background:new 0 0 512 512;" xml:space="preserve">
<g transform="matrix(1.25 0 0 -1.25 0 45)">
	<g>
		<g>
			<path style="fill:#3B88C3;" d="M409.6-328.089c0-25.134-20.378-45.511-45.511-45.511H45.511C20.378-373.6,0-353.222,0-328.089
				V-9.511C0,15.622,20.378,36,45.511,36h318.578C389.222,36,409.6,15.622,409.6-9.511V-328.089z"/>
			<path style="fill:#FFFFFF;" d="M185.412-188.484h33.519l5.643,40.22h-33.519L185.412-188.484z M156.843-148.263h-30.345
				c-11.639,0-16.93,8.465-16.93,16.93c0,8.476,5.291,16.942,16.93,16.942h35.282l7.76,56.786
				c1.764,12.709,7.054,16.942,17.636,16.942c8.465,0,16.225-5.643,16.225-14.12c0-5.291,0-2.822-0.694-8.465l-7.066-51.143h33.872
				l7.76,56.786c1.764,12.709,7.054,16.942,17.636,16.942c8.465,0,16.236-5.643,16.236-14.12c0-5.291,0-2.822-0.705-8.465
				l-7.066-51.143h30.345c11.639,0,16.919-8.465,16.919-16.942c0-8.465-5.279-16.93-16.919-16.93h-35.283l-5.643-40.22h30.333
				c11.651,0,16.941-8.465,16.941-16.93c0-8.465-5.291-16.941-16.941-16.941h-35.26l-7.771-56.786
				c-1.764-12.709-7.054-16.93-17.636-16.93c-8.465,0-16.225,5.643-16.225,14.108c0,5.291,0,2.822,0.705,8.465l7.054,51.143h-33.872
				l-7.76-56.786c-1.764-12.709-7.054-16.93-17.636-16.93c-8.465,0-16.236,5.643-16.236,14.108c0,5.291,0,2.822,0.705,8.465
				l7.066,51.143h-30.345c-11.639,0-16.93,8.476-16.93,16.942s5.291,16.93,16.93,16.93h35.282L156.843-148.263L156.843-148.263z"/>
		</g>
	</g>
</g>
<g>
</g>
<g>
</g>
<g>
</g>
<g>
</g>
<g>
</g>
<g>
</g>
<g>
</g>
<g>
</g>
<g>
</g>
<g>
</g>
<g>
</g>
<g>
</g>
<g>
</g>
<g>
</g>
<g>
</g>
</svg>
