<?xml version="1.0" encoding="iso-8859-1"?>
<!-- Generator: Adobe Illustrator 19.0.0, SVG Export Plug-In . SVG Version: 6.00 Build 0)  -->
<svg version="1.1" id="Capa_1" xmlns="http://www.w3.org/2000/svg" xmlns:xlink="http://www.w3.org/1999/xlink" x="0px" y="0px"
	 viewBox="0 0 512 512" style="enable-background:new 0 0 512 512;" xml:space="preserve">
<g>
	<path style="fill:#3B484A;" d="M404.54,357.926h63.319c15.934,0,28.85-12.916,28.85-28.85c0-15.934-12.916-28.85-28.85-28.85
		H404.54c-15.934,0-28.85,12.916-28.85,28.85C375.69,345.01,388.606,357.926,404.54,357.926z"/>
	<path style="fill:#3B484A;" d="M399.043,270.116l47.705-41.636c12.005-10.477,13.242-28.702,2.765-40.706
		s-28.702-13.242-40.706-2.765l-47.705,41.636c-12.005,10.477-13.242,28.702-2.765,40.706
		C368.813,279.354,387.038,280.592,399.043,270.116z"/>
	<path style="fill:#3B484A;" d="M399.043,388.037l47.705,41.636c12.005,10.477,13.242,28.702,2.765,40.706
		c-10.477,12.004-28.702,13.242-40.706,2.765l-47.705-41.636c-12.005-10.477-13.242-28.702-2.765-40.706
		C368.813,378.799,387.038,377.56,399.043,388.037z"/>
	<path style="fill:#3B484A;" d="M210.895,78.017c-2.902,0-5.684-1.642-6.998-4.443l-24.453-52.061
		c-1.814-3.862-0.154-8.464,3.709-10.278c3.86-1.814,8.463-0.155,10.278,3.709l24.453,52.061c1.814,3.862,0.154,8.464-3.709,10.278
		C213.113,77.781,211.995,78.017,210.895,78.017z"/>
	<path style="fill:#3B484A;" d="M301.106,78.017c-1.1,0-2.218-0.236-3.28-0.735c-3.863-1.814-5.523-6.416-3.709-10.278
		l24.453-52.061c1.814-3.862,6.417-5.523,10.278-3.709c3.863,1.814,5.523,6.416,3.709,10.278l-24.453,52.061
		C306.789,76.374,304.008,78.017,301.106,78.017z"/>
	<ellipse style="fill:#3B484A;" cx="255.619" cy="151.416" rx="114.731" ry="101.411"/>
</g>
<path style="fill:#333E40;" d="M167.68,149.354c0-48.931,39.201-89.764,91.355-99.306c-1.134-0.029-2.271-0.048-3.412-0.048
	c-63.362,0-114.728,45.405-114.728,101.415s51.366,101.415,114.728,101.415c8.01,0,15.826-0.728,23.373-2.109
	C217.212,249.125,167.68,204.355,167.68,149.354z"/>
<path style="fill:#3B484A;" d="M106.705,357.926H43.386c-15.934,0-28.85-12.916-28.85-28.85c0-15.934,12.916-28.85,28.85-28.85
	h63.319c15.934,0,28.85,12.916,28.85,28.85C135.555,345.01,122.638,357.926,106.705,357.926z"/>
<path style="fill:#333E40;" d="M106.705,337.322H43.386c-12.302,0-22.8-7.705-26.949-18.547c-1.224,3.2-1.902,6.671-1.902,10.302
	c0,15.933,12.916,28.849,28.85,28.849h63.319c15.934,0,28.85-12.917,28.85-28.849c0-3.63-0.677-7.102-1.902-10.302
	C129.505,329.618,119.008,337.322,106.705,337.322z"/>
<path style="fill:#3B484A;" d="M112.202,270.116L64.498,228.48c-12.005-10.477-13.242-28.702-2.765-40.706
	s28.702-13.242,40.706-2.765l47.705,41.636c12.005,10.477,13.242,28.702,2.765,40.706
	C142.431,279.354,124.207,280.592,112.202,270.116z"/>
<path style="fill:#333E40;" d="M122.504,249.512l-47.705-41.636c-6.949-6.064-10.281-14.723-9.831-23.271
	c-1.141,0.956-2.225,2.011-3.236,3.169c-10.477,12.004-9.239,30.229,2.765,40.706l47.705,41.636
	c12.005,10.477,30.229,9.239,40.706-2.765c4.412-5.056,6.739-11.216,7.066-17.435C149.275,258.877,133.351,258.978,122.504,249.512z
	"/>
<path style="fill:#3B484A;" d="M112.202,388.037l-47.705,41.636c-12.005,10.477-13.242,28.702-2.765,40.706
	c10.477,12.004,28.702,13.242,40.706,2.765l47.705-41.636c12.005-10.477,13.242-28.702,2.765-40.706
	C142.431,378.799,124.207,377.56,112.202,388.037z"/>
<g>
	<path style="fill:#333E40;" d="M152.908,390.802c-5.341-6.119-12.696-9.434-20.214-9.832c10.045,12.005,8.696,29.894-3.154,40.237
		l-47.705,41.636c-5.884,5.135-13.264,7.449-20.491,7.067c0.131,0.157,0.254,0.315,0.389,0.47
		c10.477,12.004,28.702,13.242,40.706,2.765l47.705-41.636C162.147,421.031,163.385,402.806,152.908,390.802z"/>
	<path style="fill:#333E40;" d="M405.295,337.322h63.319c12.302,0,22.8-7.705,26.948-18.547c1.224,3.2,1.902,6.671,1.902,10.302
		c0,15.933-12.916,28.849-28.85,28.849h-63.319c-15.934,0-28.85-12.917-28.85-28.849c0-3.63,0.677-7.102,1.902-10.302
		C382.495,329.618,392.993,337.322,405.295,337.322z"/>
	<path style="fill:#333E40;" d="M389.496,249.512l47.705-41.636c6.949-6.064,10.281-14.723,9.831-23.271
		c1.141,0.956,2.225,2.011,3.236,3.169c10.477,12.004,9.239,30.229-2.765,40.706l-47.705,41.636
		c-12.005,10.477-30.23,9.239-40.706-2.765c-4.412-5.056-6.739-11.216-7.066-17.435
		C362.725,258.877,378.649,258.978,389.496,249.512z"/>
	<path style="fill:#333E40;" d="M359.092,390.802c5.341-6.119,12.696-9.434,20.214-9.832c-10.045,12.005-8.696,29.894,3.154,40.237
		l47.705,41.636c5.884,5.135,13.264,7.449,20.491,7.067c-0.131,0.157-0.254,0.315-0.389,0.47
		c-10.477,12.004-28.702,13.242-40.706,2.765l-47.705-41.636C349.853,421.031,348.615,402.806,359.092,390.802z"/>
</g>
<circle style="fill:#3B484A;" cx="256" cy="327.989" r="168.682"/>
<path style="fill:#FF5E6B;" d="M256,136.727h-0.378c-105.516,0.2-191.467,86.833-190.88,192.349
	c0.472,86.371,58.203,159.177,137.168,182.415c7.05,2.077,14.141-2.916,14.603-10.239C220.824,431.908,256,380.881,256,380.881
	s35.176,51.028,39.488,120.371c0.451,7.26,7.458,12.337,14.435,10.292c79.373-23.279,137.346-96.642,137.346-183.547
	C447.269,222.364,361.643,136.737,256,136.727z"/>
<path style="fill:#E63E4C;" d="M98.738,328.094c-0.422-75.826,38.738-143.008,97.974-181.906
	c-76.791,25.204-132.443,97.917-131.97,182.888c0.472,86.371,58.203,159.177,137.168,182.415c0.365,0.107,0.728,0.184,1.093,0.254
	C140.826,474.099,99.164,405.983,98.738,328.094z"/>
<g>
	<circle style="fill:#3B484A;" cx="312.619" cy="234.531" r="21.361"/>
	<circle style="fill:#3B484A;" cx="333.604" cy="421.457" r="21.361"/>
	<circle style="fill:#3B484A;" cx="364.931" cy="327.989" r="27.279"/>
	<circle style="fill:#3B484A;" cx="198.629" cy="234.531" r="21.361"/>
	<circle style="fill:#3B484A;" cx="177.645" cy="421.457" r="21.361"/>
	<circle style="fill:#3B484A;" cx="146.317" cy="327.989" r="27.279"/>
</g>
<g>
	<circle style="fill:#333E40;" cx="186.432" cy="18.228" r="18.228"/>
	<circle style="fill:#333E40;" cx="325.568" cy="18.228" r="18.228"/>
</g>
<g>
	<path style="fill:#F0F0F0;" d="M207.215,113.597c-4.267,0-7.726-3.459-7.726-7.726v-8.83c0-4.267,3.459-7.726,7.726-7.726
		c4.267,0,7.726,3.459,7.726,7.726v8.83C214.941,110.138,211.482,113.597,207.215,113.597z"/>
	<path style="fill:#F0F0F0;" d="M304.785,113.597c-4.267,0-7.726-3.459-7.726-7.726v-8.83c0-4.267,3.459-7.726,7.726-7.726
		c4.267,0,7.726,3.459,7.726,7.726v8.83C312.512,110.138,309.052,113.597,304.785,113.597z"/>
	<path style="fill:#F0F0F0;" d="M256,118.31c-6.923,0-13.432-2.905-17.858-7.969c-2.808-3.213-2.481-8.094,0.732-10.902
		c3.213-2.809,8.094-2.481,10.902,0.732c1.492,1.707,3.76,2.686,6.224,2.686c2.464,0,4.732-0.979,6.224-2.686
		c2.808-3.213,7.689-3.541,10.902-0.732c3.213,2.808,3.541,7.689,0.731,10.902C269.432,115.406,262.922,118.31,256,118.31z"/>
</g>
<g>
</g>
<g>
</g>
<g>
</g>
<g>
</g>
<g>
</g>
<g>
</g>
<g>
</g>
<g>
</g>
<g>
</g>
<g>
</g>
<g>
</g>
<g>
</g>
<g>
</g>
<g>
</g>
<g>
</g>
</svg>
