<?xml version="1.0" encoding="iso-8859-1"?>
<!-- Generator: Adobe Illustrator 18.0.0, SVG Export Plug-In . SVG Version: 6.00 Build 0)  -->
<!DOCTYPE svg PUBLIC "-//W3C//DTD SVG 1.1//EN" "http://www.w3.org/Graphics/SVG/1.1/DTD/svg11.dtd">
<svg version="1.1" id="Capa_1" xmlns="http://www.w3.org/2000/svg" xmlns:xlink="http://www.w3.org/1999/xlink" x="0px" y="0px"
	 viewBox="0 0 392.619 392.619" style="enable-background:new 0 0 392.619 392.619;" xml:space="preserve">
<g>
	<polygon points="149.206,222.201 103.831,267.576 103.846,216.848 73.309,247.384 73.31,319.31 145.235,319.31 175.772,288.773 
		125.044,288.788 170.418,243.414 170.418,222.201 	"/>
	<polygon points="243.414,170.418 288.788,125.043 288.773,175.771 319.31,145.235 319.309,73.309 247.384,73.309 216.847,103.846 
		267.575,103.831 222.201,149.205 222.201,170.418 	"/>
	<polygon points="170.418,149.206 125.043,103.831 175.771,103.845 145.235,73.309 73.309,73.309 73.309,145.235 103.845,175.771 
		103.83,125.044 149.205,170.418 170.418,170.418 	"/>
	<polygon points="288.789,267.576 243.414,222.201 222.201,222.201 222.201,243.414 267.576,288.789 216.848,288.774 
		247.385,319.31 319.31,319.31 319.31,247.384 288.774,216.848 	"/>
	<path d="M310.724,0.929H81.896C36.738,0.929,0,37.667,0,82.825v226.97c0,45.157,36.738,81.896,81.896,81.896h228.828
		c45.157,0,81.896-36.738,81.896-81.896V82.825C392.619,37.667,355.881,0.929,310.724,0.929z M362.619,309.795
		c0,28.615-23.28,51.896-51.896,51.896H81.896C53.28,361.69,30,338.41,30,309.795V82.825c0-28.616,23.28-51.896,51.896-51.896
		h228.828c28.615,0,51.896,23.28,51.896,51.896V309.795z"/>
	<polygon style="fill:#FFFFFF;" points="243.414,222.201 279.645,222.201 279.645,170.418 243.414,170.418 222.201,170.418 
		222.201,149.205 222.201,112.974 170.418,112.974 170.418,149.206 170.418,170.418 149.205,170.418 112.974,170.418 
		112.974,222.201 149.206,222.201 170.418,222.201 170.418,243.414 170.418,279.645 222.201,279.645 222.201,243.414 
		222.201,222.201 	"/>
</g>
<g>
</g>
<g>
</g>
<g>
</g>
<g>
</g>
<g>
</g>
<g>
</g>
<g>
</g>
<g>
</g>
<g>
</g>
<g>
</g>
<g>
</g>
<g>
</g>
<g>
</g>
<g>
</g>
<g>
</g>
</svg>
