<?xml version="1.0" encoding="iso-8859-1"?>
<!-- Generator: Adobe Illustrator 16.0.0, SVG Export Plug-In . SVG Version: 6.00 Build 0)  -->
<!DOCTYPE svg PUBLIC "-//W3C//DTD SVG 1.1//EN" "http://www.w3.org/Graphics/SVG/1.1/DTD/svg11.dtd">
<svg version="1.1" id="Capa_1" xmlns="http://www.w3.org/2000/svg" xmlns:xlink="http://www.w3.org/1999/xlink" x="0px" y="0px"
	 width="395.972px" height="395.972px" viewBox="0 0 395.972 395.972" style="enable-background:new 0 0 395.972 395.972;"
	 xml:space="preserve">
<g>
	<g>
		<g>
			<path d="M236.652,149.48v-26H10c-5.523,0-10,4.478-10,10v129.011c0,5.521,4.477,10,10,10h226.652v-26H26V149.48H236.652
				L236.652,149.48z"/>
			<path d="M385.973,123.48H300.65v26h69.321v97.011H300.65v26h85.321c5.521,0,10-4.479,10-10V133.48
				C395.973,127.958,391.494,123.48,385.973,123.48z"/>
			<path d="M306.062,287.42h-23.53c-0.478,0-0.879-0.401-0.879-0.879V109.433c0-0.479,0.401-0.881,0.879-0.881h23.53
				c5.521,0,10-4.478,10-10v-6c0-5.522-4.479-10-10-10h-23.53c-4.937,0-9.693,1.333-13.879,3.874
				c-4.188-2.541-8.943-3.874-13.879-3.874h-23.529c-5.523,0-10,4.478-10,10v6c0,5.522,4.477,10,10,10h23.529
				c0.477,0,0.879,0.403,0.879,0.881v177.107c0,0.477-0.402,0.879-0.879,0.879h-23.529c-5.523,0-10,4.479-10,10v6
				c0,5.521,4.477,10,10,10h23.529c4.936,0,9.692-1.333,13.879-3.874c4.186,2.541,8.942,3.874,13.879,3.874h23.53
				c5.521,0,10-4.479,10-10v-6C316.062,291.898,311.584,287.42,306.062,287.42z"/>
		</g>
	</g>
</g>
<g>
</g>
<g>
</g>
<g>
</g>
<g>
</g>
<g>
</g>
<g>
</g>
<g>
</g>
<g>
</g>
<g>
</g>
<g>
</g>
<g>
</g>
<g>
</g>
<g>
</g>
<g>
</g>
<g>
</g>
</svg>
