<?xml version="1.0" encoding="iso-8859-1"?>
<!-- Generator: Adobe Illustrator 19.0.0, SVG Export Plug-In . SVG Version: 6.00 Build 0)  -->
<svg version="1.1" id="Layer_1" xmlns="http://www.w3.org/2000/svg" xmlns:xlink="http://www.w3.org/1999/xlink" x="0px" y="0px"
	 viewBox="0 0 511.997 511.997" style="enable-background:new 0 0 511.997 511.997;" xml:space="preserve">
<g>
	<polygon style="fill:#FEE187;" points="405.041,83.595 203.238,83.595 219.287,14.607 421.088,14.607 	"/>
	<polygon style="fill:#FEE187;" points="292.71,497.393 90.907,497.393 106.954,428.405 308.757,428.405 	"/>
</g>
<g>
	<path style="fill:#FFC61B;" d="M347.568,129.753c-7.764-2.165-15.828,2.369-17.997,10.14l-76.484,273.905h-146.13
		c-6.792,0-12.689,4.681-14.227,11.297l-16.047,68.987c-1.008,4.34,0.018,8.904,2.788,12.392c2.769,3.49,6.982,5.523,11.439,5.523
		H292.71c6.792,0,12.689-4.681,14.227-11.297l16.047-68.987c1.008-4.34-0.018-8.904-2.788-12.392
		c-2.769-3.49-6.982-5.523-11.439-5.523h-25.339l74.291-266.048C359.878,139.981,355.338,131.922,347.568,129.753z M281.111,482.786
		H109.302l9.252-39.773h145.565c0.02,0,0.042,0.004,0.063,0.004c0.035,0,0.069-0.004,0.104-0.004h26.078L281.111,482.786z"/>
	<path style="fill:#FFC61B;" d="M432.527,5.523C429.757,2.035,425.545,0,421.088,0H219.287c-6.792,0-12.689,4.682-14.227,11.297
		l-16.049,68.988c-1.008,4.34,0.018,8.904,2.788,12.392c2.769,3.49,6.982,5.523,11.439,5.523h25.308l-74.254,264.374
		c-2.181,7.766,2.346,15.831,10.114,18.013c1.32,0.371,2.65,0.548,3.957,0.548c6.382,0,12.245-4.216,14.056-10.662l76.473-272.273
		H405.04c6.792,0,12.689-4.682,14.227-11.297l16.047-68.987C436.325,13.577,435.299,9.012,432.527,5.523z M393.442,68.987H221.633
		l9.252-39.773h171.809L393.442,68.987z"/>
</g>
<g>
</g>
<g>
</g>
<g>
</g>
<g>
</g>
<g>
</g>
<g>
</g>
<g>
</g>
<g>
</g>
<g>
</g>
<g>
</g>
<g>
</g>
<g>
</g>
<g>
</g>
<g>
</g>
<g>
</g>
</svg>
