<?xml version="1.0" encoding="iso-8859-1"?>
<!-- Generator: Adobe Illustrator 19.0.0, SVG Export Plug-In . SVG Version: 6.00 Build 0)  -->
<svg version="1.1" id="Layer_1" xmlns="http://www.w3.org/2000/svg" xmlns:xlink="http://www.w3.org/1999/xlink" x="0px" y="0px"
	 viewBox="0 0 512 512" style="enable-background:new 0 0 512 512;" xml:space="preserve">
<g>
	<g>
		<path d="M493.268,0H18.732C8.387,0,0,8.387,0,18.732v474.537C0,503.613,8.387,512,18.732,512h474.537
			c10.345,0,18.732-8.387,18.732-18.732V18.732C512,8.387,503.613,0,493.268,0z M362.685,332.292h-36.945l-4.26,32.804
			c-1.335,10.285-10.759,17.495-20.988,16.163c-10.259-1.332-17.497-10.728-16.163-20.988l3.634-27.98h-77.343l-4.26,32.804
			c-1.336,10.292-10.769,17.495-20.988,16.163c-10.259-1.332-17.495-10.728-16.163-20.988l3.633-27.98h-23.526
			c-10.345,0-18.732-8.387-18.732-18.732s8.387-18.732,18.732-18.732h28.39l10.084-77.658h-38.474
			c-10.345,0-18.732-8.387-18.732-18.732s8.387-18.732,18.732-18.732h43.339l4.26-32.804c1.332-10.259,10.733-17.498,20.988-16.163
			c10.259,1.332,17.495,10.728,16.163,20.988l-3.633,27.98h77.343l4.26-32.804c1.331-10.259,10.711-17.5,20.988-16.163
			c10.259,1.332,17.497,10.728,16.163,20.988l-3.634,27.98h17.131c10.345,0,18.732,8.387,18.732,18.732
			c0,10.345-8.387,18.732-18.732,18.732h-21.996l-10.084,77.658h32.081v0c10.345,0,18.732,8.387,18.732,18.732
			S373.029,332.292,362.685,332.292z"/>
	</g>
</g>
<g>
	<g>
		<polygon points="225.567,217.172 215.483,294.828 292.827,294.828 302.91,217.172 		"/>
	</g>
</g>
<g>
</g>
<g>
</g>
<g>
</g>
<g>
</g>
<g>
</g>
<g>
</g>
<g>
</g>
<g>
</g>
<g>
</g>
<g>
</g>
<g>
</g>
<g>
</g>
<g>
</g>
<g>
</g>
<g>
</g>
</svg>
