<?xml version="1.0" encoding="iso-8859-1"?>
<!-- Generator: Adobe Illustrator 19.0.0, SVG Export Plug-In . SVG Version: 6.00 Build 0)  -->
<svg version="1.1" id="Layer_1" xmlns="http://www.w3.org/2000/svg" xmlns:xlink="http://www.w3.org/1999/xlink" x="0px" y="0px"
	 viewBox="0 0 511.867 511.867" style="enable-background:new 0 0 511.867 511.867;" xml:space="preserve">
<g>
	<path style="fill:#E0E0E0;" d="M202.958,237.756l35.31-39.724l-37.076-36.193c-30.014-30.014-55.614-61.793-75.034-99.752
		l-0.883,0.883c0,19.421-9.71,38.841-27.366,50.317c-9.71,7.062-21.186,10.593-33.545,10.593l-0.883,0.883
		c37.959,19.421,69.738,45.021,99.752,75.034L202.958,237.756z"/>
	<path style="fill:#E0E0E0;" d="M351.261,311.908l-63.559-63.559l-35.31,39.724l61.793,61.793
		c23.834,23.835,52.966,66.207,75.034,99.752l0.883-0.883c0-19.421,9.71-38.841,27.366-51.2c9.71-7.062,22.069-9.71,33.545-10.593
		l0.883-0.883C417.468,364.874,375.096,335.743,351.261,311.908"/>
</g>
<g>
	<path style="fill:#C3C7CB;" d="M57.303,0.294l27.366,47.669l-1.766,4.414C75.84,67.384,59.951,76.211,44.061,75.329h-4.414
		L12.282,28.543c-17.655,26.483-12.359,64.441,15.89,84.745c20.303,15.007,48.552,15.007,69.738,0.883
		c33.545-22.952,36.193-67.972,9.71-95.338C93.496,4.708,75.84-1.471,57.303,0.294"/>
	<path style="fill:#C3C7CB;" d="M457.192,510.529l-27.366-47.669l1.766-4.414c7.062-15.007,22.952-23.834,38.841-22.952h4.414
		l26.483,46.786c17.655-26.483,12.359-64.441-15.89-84.745c-20.303-15.007-48.552-15.007-69.738-0.883
		c-33.545,22.952-36.193,67.972-9.71,95.338C420.999,506.115,439.537,512.294,457.192,510.529"/>
</g>
<path style="fill:#7F7C79;" d="M282.406,147.715c20.303-20.303,22.952-52.083,1.766-73.269
	c-41.49-41.49-65.324-37.076-112.11-37.076C242.682,6.474,293.882-0.589,345.082,23.246c22.069,9.71,30.897,18.538,48.552,36.193
	l31.779,31.779c7.945,7.945,13.241,18.538,15.007,29.131c2.648,16.772-1.766,20.303,9.71,32.662c3.531,3.531,8.828,3.531,12.359,0
	s8.828-3.531,12.359,0l30.897,30.897c7.062,7.062,7.062,17.655,0,24.717l-62.676,62.676c-7.062,7.062-17.655,7.062-24.717,0
	l-29.131-30.014c-3.531-3.531-3.531-8.828,0-12.359c3.531-3.531,3.531-9.71,0-13.241c-12.359-12.359-15.89-7.945-32.662-9.71
	c-11.476-1.766-21.186-7.062-29.131-15.007L282.406,147.715"/>
<path style="fill:#565656;" d="M282.406,147.715L8.751,454.032c-10.593,10.593-11.476,28.248-0.883,37.959l12.359,12.359
	c10.593,10.593,27.366,9.71,37.959-0.883l274.538-307.2L282.406,147.715z"/>
<g>
	<path style="fill:#7F7C79;" d="M39.647,424.018l18.538,18.538c1.766,1.766,4.414,2.648,6.179,2.648
		c2.648,0,4.414-0.883,6.179-2.648c3.531-3.531,3.531-8.828,0-12.359L52.006,411.66c-0.883-0.883-1.766-1.766-2.648-1.766
		l-10.593,12.359C38.765,422.253,38.765,423.136,39.647,424.018"/>
	<path style="fill:#7F7C79;" d="M14.93,448.736l18.538,18.538c1.766,1.766,4.414,2.648,6.179,2.648c2.648,0,4.414-0.883,6.179-2.648
		c3.531-3.531,3.531-8.828,0-12.359l-18.538-18.538l-0.883-0.883L14.93,448.736C14.047,448.736,14.047,448.736,14.93,448.736"/>
</g>
<g>
	<path style="fill:#C3C7CB;" d="M345.082,355.163l-13.241,13.241c3.531,4.414,7.062,8.828,10.593,14.124c0,0,0.883,0,0.883-0.883
		l14.124-14.124c3.531-3.531,3.531-8.828,0-12.359C353.909,351.632,348.613,351.632,345.082,355.163"/>
	<path style="fill:#C3C7CB;" d="M369.799,380.763l-16.772,16.772c3.531,4.414,7.062,9.71,10.593,14.124l0.883-0.883l17.655-17.655
		c3.531-3.531,3.531-8.828,0-12.359S373.33,377.232,369.799,380.763"/>
</g>
<g>
</g>
<g>
</g>
<g>
</g>
<g>
</g>
<g>
</g>
<g>
</g>
<g>
</g>
<g>
</g>
<g>
</g>
<g>
</g>
<g>
</g>
<g>
</g>
<g>
</g>
<g>
</g>
<g>
</g>
</svg>
