<?xml version="1.0" encoding="iso-8859-1"?>
<!-- Generator: Adobe Illustrator 19.0.0, SVG Export Plug-In . SVG Version: 6.00 Build 0)  -->
<svg version="1.1" id="Layer_1" xmlns="http://www.w3.org/2000/svg" xmlns:xlink="http://www.w3.org/1999/xlink" x="0px" y="0px"
	 viewBox="0 0 512.257 512.257" style="enable-background:new 0 0 512.257 512.257;" xml:space="preserve">
<g transform="translate(1 1)">
	<g>
		<path d="M482.059,385.817c-10.639-7.487-22.917-11.509-35.319-12.165c-46.744-30.61-77.364-53.585-95.241-71.462l-54.915-54.915
			l33.324-37.302c6.316,3.565,13.099,5.914,19.884,6.883c5.12,0.853,8.533,0.853,11.947,0.853c6.827,0,8.533,0,15.36,5.973
			c-3.413,2.56-5.12,6.827-5.12,11.093s1.707,9.387,5.12,12.8l29.867,29.867c4.267,5.12,11.093,7.68,17.92,7.68
			s13.653-2.56,17.92-8.533l60.587-60.587c5.12-4.267,7.68-11.093,7.68-17.92s-2.56-12.8-7.68-17.92l-29.867-29.867
			c-3.413-3.413-7.68-5.12-11.947-5.12s-8.533,2.56-11.947,5.12c-6.827-5.973-6.827-7.68-6.827-14.507c0-3.413,0-7.68-1.707-12.8
			c-1.707-11.947-7.68-23.893-17.067-33.28l-30.72-30.72c-17.92-17.92-26.453-26.453-49.493-36.693
			c-49.493-23.04-99.84-18.773-173.227,14.507c-4.267,1.707-5.973,5.12-5.12,9.387s4.267,6.827,8.533,6.827h11.093
			c37.547,0,57.173,0,91.307,34.133c14.946,14.946,15.377,37.863,1.986,54.724c-1.805,0.272-3.179,1.082-4.546,2.449l-37.906,42.308
			l-28.654-28.654c-31.494-31.494-53.646-61.291-70.695-94.47c-0.895-16.789-7.632-32.497-19.758-44.623
			C102.325,4.377,81.845-2.45,61.365-0.743c-2.56,0.853-5.12,2.56-5.973,4.267c-1.707,2.56-1.707,5.973,0,8.533l23.893,42.667
			c-5.12,11.093-17.067,17.92-29.013,17.067L25.525,30.83c-0.853-2.56-4.267-4.267-6.827-4.267c-2.56-0.853-5.12,0.853-6.827,3.413
			c-20.48,30.72-12.8,71.68,17.92,93.013c10.584,7.56,22.508,11.764,34.584,12.626c0.135,0.057,0.262,0.127,0.402,0.174
			c33.28,17.067,63.147,39.253,94.72,70.827l31.209,30.499L9.312,439.577c-6.827,6.827-10.24,16.213-10.24,25.6
			c0,9.387,3.413,17.92,10.24,24.747l11.947,11.947c6.827,5.973,15.36,9.387,23.893,9.387s17.92-3.413,24.747-10.24l181.187-202.813
			l52.626,52.626c17.903,17.903,40.917,49.435,71.594,95.444c1.1,16.423,7.821,31.757,19.713,43.649
			c12.8,12.8,29.867,19.627,47.787,19.627c2.56,0,5.12,0,6.827,0c2.56,0,5.12-1.707,6.827-4.267s1.707-5.973,0-8.533l-24.747-41.813
			c5.973-11.093,17.067-17.92,29.867-17.067l23.893,40.96c0.853,2.56,4.267,4.267,6.827,4.267c3.413-0.853,5.973-1.707,7.68-4.267
			C520.459,448.11,511.925,407.15,482.059,385.817z M287.499,73.497c-27.307-26.453-47.787-34.987-70.827-37.547
			c48.64-15.36,84.48-14.507,120.32,1.707c20.48,8.533,27.307,15.36,45.227,33.28l30.72,30.72
			c6.827,6.827,11.093,15.36,11.947,23.893c0.853,4.267,0.853,7.68,0.853,10.24c0,9.387,0.853,16.213,11.093,26.453
			c3.413,3.413,8.533,5.12,12.8,5.12c5.12,0,9.387-1.707,11.947-5.12l29.867,29.867c1.707,1.707,2.56,3.413,2.56,5.973
			s-0.853,4.267-2.56,5.973l-60.587,60.587c-3.413,3.413-8.533,3.413-11.947,0l-29.867-29.867c3.413-2.56,5.12-6.827,4.267-11.947
			c0-4.267-1.707-9.387-5.12-12.8c-10.24-10.24-17.067-11.093-26.453-11.093c-2.56,0-5.973,0-10.24-0.853
			c-9.387-0.853-17.067-5.12-23.893-11.947l-36.693-36.693C309.685,126.404,307.979,93.977,287.499,73.497z M19.552,53.017
			l17.92,30.72c1.707,2.56,4.267,4.267,6.827,4.267h4.267c19.627,0.853,37.547-9.387,46.08-26.453l1.707-4.267
			c1.707-2.56,1.707-5.12,0-7.68L77.579,17.177c10.24,1.707,19.627,6.827,27.307,14.507c8.798,9.531,14.431,21.585,14.764,34.533
			c-0.165,0.657-0.258,1.364-0.258,2.161c0,3.952-0.477,7.807-1.36,11.523c-3.219,12.356-10.938,23.129-21.68,30.291
			c-17.067,11.093-40.107,11.093-57.173-0.853C21.259,96.537,13.579,73.497,19.552,53.017z M171.445,194.67
			c-25.6-26.453-51.2-46.933-78.507-63.147c4.267-1.707,9.387-4.267,13.653-6.827c12.8-8.533,21.333-19.627,26.453-33.28
			c16.213,27.307,36.693,52.907,62.293,78.507l29.31,29.31l-22.985,25.655L171.445,194.67z M57.952,488.217
			c-6.827,6.827-17.92,7.68-24.747,0.853l-11.947-11.093c-3.413-3.413-5.12-7.68-5.12-11.947c0-5.12,1.707-9.387,5.973-13.653
			l4.833-5.407l12.234,12.234c1.707,1.707,3.413,2.56,5.973,2.56s4.267-0.853,5.973-2.56c3.413-3.413,3.413-8.533,0-11.947
			l-12.904-12.904l11.277-12.617l13.574,13.574c1.707,1.707,3.413,2.56,5.973,2.56s4.267-0.853,5.973-2.56
			c3.413-3.413,3.413-8.533,0-11.947L60.775,409.12l219.494-245.573l35.84,35.84l-35.215,39.399
			c-1.006,0.426-1.896,1.077-2.782,1.964l-34.133,38.4c-0.975,0.975-1.661,2.091-2.079,3.264L57.952,488.217z M262.762,285.134
			l23.353-26.14l55.143,55.143c15.36,16.213,41.813,36.693,80.213,62.293c-5.12,1.707-10.24,4.267-15.36,7.68
			c-10.587,6.617-18.085,15.804-23.31,25.96c-0.077,0.145-0.148,0.293-0.224,0.439c-0.31,0.611-0.612,1.225-0.906,1.843
			c-0.421,0.875-0.821,1.76-1.204,2.654c-0.262,0.605-0.523,1.21-0.77,1.819c-0.035,0.088-0.069,0.176-0.104,0.264
			c-0.269,0.668-0.536,1.336-0.788,2.008c-4.847-7.109-9.51-13.818-13.995-20.138l11.435-11.435c3.413-3.413,3.413-8.533,0-11.947
			c-3.413-3.413-8.533-3.413-11.947,0l-9.513,9.513c-3.546-4.812-6.971-9.351-10.275-13.618l7.842-7.842
			c3.413-3.413,3.413-8.533,0-11.947c-3.413-3.413-8.533-3.413-11.947,0l-6.514,6.514c-6.272-7.559-12.057-13.992-17.379-19.314
			L262.762,285.134z M491.445,455.79l-17.92-30.72c-1.707-2.56-4.267-4.267-6.827-4.267h-4.267
			c-19.627-1.707-37.547,9.387-46.08,26.453l-1.707,4.267c-1.707,2.56-1.707,5.12,0,7.68l18.773,32.427
			c-10.24-1.707-19.627-6.827-27.307-14.507c-8.631-9.351-14.21-21.13-14.735-33.797c0.146-0.624,0.228-1.294,0.228-2.043
			c0-10.81,3.432-20.931,9.413-29.504c3.675-5.114,8.271-9.591,13.627-13.162c8.533-5.973,17.92-8.533,28.16-8.533
			c10.24,0,20.48,3.413,29.013,9.387C489.739,412.27,497.419,435.31,491.445,455.79z"/>
	</g>
</g>
<g>
</g>
<g>
</g>
<g>
</g>
<g>
</g>
<g>
</g>
<g>
</g>
<g>
</g>
<g>
</g>
<g>
</g>
<g>
</g>
<g>
</g>
<g>
</g>
<g>
</g>
<g>
</g>
<g>
</g>
</svg>
